<?xml version="1.0" encoding="UTF-8"?>
<!DOCTYPE svg PUBLIC "-//W3C//DTD SVG 1.1//EN" "http://www.w3.org/Graphics/SVG/1.1/DTD/svg11.dtd">
<!-- Creator: CorelDRAW 2021.5 -->
<svg xmlns="http://www.w3.org/2000/svg" xml:space="preserve" width="850px" height="151px" version="1.1" shape-rendering="geometricPrecision" text-rendering="geometricPrecision" image-rendering="optimizeQuality" fill-rule="evenodd" clip-rule="evenodd"
viewBox="0 0 63.78 11.3"
 xmlns:xlink="http://www.w3.org/1999/xlink"
 xmlns:xodm="http://www.corel.com/coreldraw/odm/2003">
 <g id="Layer_x0020_1">
  <metadata id="CorelCorpID_0Corel-Layer"/>
  <g id="_105553389187968">
   <path fill="#616669" d="M8.9 4.74c0.23,-0.13 1.16,-0.29 1.5,-0.35 1.3,-0.23 2.81,-0.23 4.07,0.24 0.22,0.08 0.38,0.2 0.4,0.48 0.06,0.61 -0.36,0.37 0.25,1 0.05,0.06 0.18,0.2 0.31,0.09 0.12,-0.11 0.28,-1.3 0.3,-1.54 0.02,-0.31 -0.06,-0.5 -0.32,-0.61 -0.66,-0.27 -1.43,-0.47 -2.16,-0.6 -1.7,-0.29 -3.19,-0.01 -4.73,0.57 -0.25,0.09 -0.53,0.1 -0.51,0.4l0.24 1.58c0.06,0.39 0.05,0.43 0.32,0.61 0.38,0.24 0.72,0.44 1.12,0.7 0.21,0.14 0.97,0.62 1.13,0.69 0.41,0.17 1.13,0.34 1.5,0.09 -0.01,-0.21 -0.29,-0.33 -0.43,-0.42l-1.56 -0.97c-0.36,-0.23 -0.67,-0.43 -1.04,-0.66 -0.11,-0.07 -0.15,-0.08 -0.19,-0.23 -0.05,-0.19 -0.22,-0.95 -0.2,-1.07z"/>
   <path fill="#616669" d="M15.05 8.62l5.85 -2.13 -0.19 0.5c-1.71,0.67 -4.26,1.55 -6.78,3.25 0.44,-0.48 0.82,-1.03 1.12,-1.62z"/>
   <path fill="#041532" d="M20.96 6.24l-1.2 0.45 -4.54 1.58c0.13,-0.26 0.28,-0.6 0.33,-0.84 0.11,-0.31 0.21,-0.65 0.29,-0.98 0.02,-0.01 0.03,-0.02 0.05,-0.03 0.16,-0.14 0.23,-0.6 0.27,-0.84 1.39,-0.13 3.8,-1.25 4.01,-1.54 1.17,-1.42 2.23,-2.9 2.63,-3.53 0.01,-0.02 0.06,-0.07 0.07,-0.08l0.04 -0.04c0.01,-0.01 0.02,-0.01 0.03,-0.02l0.02 -0.03c0.03,-0.02 0.05,-0.04 0.06,-0.04l0.05 -0.04c0.03,-0.02 0.06,-0.04 0.09,-0.06l0.18 -0.09c0,0 0.02,0 0.02,0l0.07 -0.03c0.01,0 0.01,-0.01 0.03,-0.01 0.02,-0.01 0.02,-0.01 0.04,-0.01 0.02,-0.01 0.01,0 0.03,-0.02l0.12 -0.01c0.02,-0.01 0.03,-0.01 0.05,-0.01 0,0 0.01,0 0.02,0 0.03,-0.01 0.01,0.02 0.01,0.04l-0.11 0.23c-0.01,0.02 -0.02,0.03 -0.02,0.05l-0.05 0.11c0,0.01 0,0.01 -0.01,0.01 0,0.01 0,0.01 0,0.01 -0.84,1.82 -1.89,3.9 -2.58,5.77z"/>
   <path fill="#616669" d="M18.53 4.69c-0.78,0.27 -1.55,0.54 -2.33,0.64 0.04,-0.22 0.07,-0.44 0.08,-0.64 0.01,-0.08 0.01,-0.16 0.01,-0.23 0.55,0.38 1.46,0.36 2.24,0.23z"/>
   <path fill="#616669" d="M8.75 8.62l-5.91 -2.14 0.19 0.49c1.71,0.67 4.28,1.66 6.92,3.23l-0.12 -0.17c-0.34,-0.41 -0.66,-0.83 -0.98,-1.25 -0.05,-0.06 -0.08,-0.11 -0.1,-0.16z"/>
   <path fill="#041532" d="M2.77 6.23l1.21 0.45 4.53 1.57c-0.12,-0.26 -0.27,-0.6 -0.32,-0.84 -0.08,-0.22 -0.15,-0.45 -0.22,-0.68 -0.21,-0.18 -0.23,-0.34 -0.28,-0.68l-0.07 -0.49c-1.39,-0.13 -3.84,-1.24 -4.05,-1.54 -1.17,-1.42 -2.23,-2.89 -2.63,-3.53 -0.01,-0.02 -0.06,-0.07 -0.07,-0.08l-0.04 -0.04c-0.01,0 -0.02,-0.01 -0.03,-0.02l-0.02 -0.02c-0.03,-0.02 -0.06,-0.04 -0.07,-0.05l-0.04 -0.04c-0.03,-0.02 -0.06,-0.04 -0.09,-0.06l-0.18 -0.09c0,0 -0.02,0 -0.02,0l-0.07 -0.03c-0.01,0 -0.01,-0.01 -0.03,-0.01 -0.02,0 -0.03,-0.01 -0.04,-0.01 -0.02,-0.01 -0.01,0 -0.04,-0.01l-0.12 -0.02c-0.01,0 -0.03,0 -0.04,-0.01 -0.01,0 -0.01,0 -0.02,0 -0.04,0 -0.01,0.03 -0.01,0.04l0.11 0.24c0,0.01 0.01,0.03 0.02,0.04l0.05 0.11c0,0.01 0,0.01 0,0.01 0.01,0.01 0.01,0.01 0.01,0.02 0.84,1.81 1.88,3.89 2.57,5.77z"/>
   <path fill="#616669" d="M5.21 4.67c0.78,0.27 1.59,0.54 2.37,0.64l-0.13 -0.85 0 -0.01c-0.55,0.37 -1.47,0.36 -2.24,0.22z"/>
   <path fill="#041532" d="M9.89 8.54c-0.32,-0.22 -0.33,-0.28 -0.61,-0.28 -0.01,0.18 -0.03,0.22 0.07,0.34 0.57,0.74 1.34,1.8 2.02,2.37 0.47,0.4 0.36,0.46 0.97,0.04 0.95,-0.66 1.71,-1.57 2.22,-2.59 0.1,-0.2 0.46,-0.94 0.45,-1.14 -0.03,-0.07 -2.15,-1.35 -2.54,-1.59 -0.63,-0.4 -1.08,-0.45 -1.75,-0.19l0.06 0.06c0,0.01 0.01,0.01 0.01,0.01l1.06 0.64c0.67,0.38 1.34,0.82 2,1.19 0.13,0.08 0.19,0.12 0.1,0.3 -0.35,0.73 -0.96,1.6 -1.54,2.11 -0.61,0.53 -0.48,0.48 -1.03,-0.04 -0.32,-0.29 -0.59,-0.61 -0.96,-0.87 -0.17,-0.12 -0.36,-0.24 -0.53,-0.36z"/>
  </g>
  <path fill="#041532" fill-rule="nonzero" d="M27.88 1.23l0 0.79 -1.47 0c-0.24,0 -0.36,0.09 -0.36,0.27l0 0.58c0,0.18 0.12,0.27 0.36,0.27l1.47 0 0 0.79 -1.47 0c-0.4,0 -0.71,-0.09 -0.91,-0.25 -0.2,-0.17 -0.3,-0.44 -0.3,-0.81l0 -0.58c0,-0.37 0.1,-0.64 0.3,-0.81 0.2,-0.16 0.51,-0.25 0.91,-0.25l1.47 0z"/>
  <path id="_1" fill="#041532" fill-rule="nonzero" d="M30.37 1.23l0.84 0 0 1.64c0,0.37 -0.1,0.64 -0.3,0.81 -0.2,0.16 -0.5,0.25 -0.91,0.25l-0.56 0c-0.41,0 -0.71,-0.09 -0.91,-0.25 -0.2,-0.17 -0.3,-0.44 -0.3,-0.81l0 -1.64 0.84 0 0 1.64c0,0.18 0.13,0.27 0.37,0.27l0.56 0c0.24,0 0.37,-0.09 0.37,-0.27l0 -1.64z"/>
  <path id="_2" fill="#041532" fill-rule="nonzero" d="M32.53 1.23l1.71 0 0 0.79 -1.71 0c-0.1,0 -0.15,0.03 -0.15,0.1 0,0.07 0.05,0.1 0.15,0.1l0.81 0c0.33,0 0.58,0.07 0.74,0.21 0.16,0.13 0.24,0.35 0.24,0.64 0,0.3 -0.08,0.52 -0.24,0.65 -0.16,0.14 -0.41,0.21 -0.74,0.21l-1.72 0 0 -0.79 1.72 0c0.09,0 0.14,-0.03 0.14,-0.1 0,-0.07 -0.05,-0.11 -0.14,-0.11l-0.81 0c-0.34,0 -0.59,-0.06 -0.75,-0.2 -0.16,-0.13 -0.24,-0.35 -0.24,-0.65 0,-0.29 0.08,-0.51 0.24,-0.65 0.16,-0.13 0.41,-0.2 0.75,-0.2z"/>
  <polygon id="_3" fill="#041532" fill-rule="nonzero" points="34.54,2.02 34.54,1.23 37.27,1.23 37.27,2.02 36.33,2.02 36.33,3.93 35.49,3.93 35.49,2.02 "/>
  <path id="_4" fill="#041532" fill-rule="nonzero" d="M38.72 1.23l0.74 0c0.41,0 0.71,0.09 0.91,0.25 0.2,0.17 0.3,0.44 0.3,0.81l0 0.58c0,0.37 -0.1,0.64 -0.3,0.81 -0.2,0.16 -0.5,0.25 -0.91,0.25l-0.74 0c-0.41,0 -0.72,-0.09 -0.91,-0.25 -0.2,-0.17 -0.3,-0.44 -0.3,-0.81l0 -0.58c0,-0.37 0.1,-0.64 0.3,-0.81 0.19,-0.16 0.5,-0.25 0.91,-0.25zm0 1.91l0.74 0c0.24,0 0.36,-0.09 0.36,-0.27l0 -0.58c0,-0.18 -0.12,-0.27 -0.36,-0.27l-0.74 0c-0.24,0 -0.37,0.09 -0.37,0.27l0 0.58c0,0.18 0.13,0.27 0.37,0.27z"/>
  <polygon id="_5" fill="#041532" fill-rule="nonzero" points="41.87,1.23 42.69,2.25 43.52,1.23 44.36,1.23 44.36,3.93 43.52,3.93 43.52,2.47 42.69,3.48 41.87,2.47 41.87,3.93 41.02,3.93 41.02,1.23 "/>
  <path id="_6" fill="#041532" fill-rule="nonzero" d="M45.69 1.23l1.71 0 0 0.79 -1.71 0c-0.09,0 -0.14,0.03 -0.14,0.1 0,0.07 0.05,0.1 0.14,0.1l0.81 0c0.33,0 0.58,0.07 0.74,0.21 0.16,0.13 0.25,0.35 0.25,0.64 0,0.3 -0.09,0.52 -0.25,0.65 -0.16,0.14 -0.41,0.21 -0.74,0.21l-1.71 0 0 -0.79 1.71 0c0.1,0 0.14,-0.03 0.14,-0.1 0,-0.07 -0.04,-0.11 -0.14,-0.11l-0.81 0c-0.33,0 -0.58,-0.06 -0.74,-0.2 -0.16,-0.13 -0.24,-0.35 -0.24,-0.65 0,-0.29 0.08,-0.51 0.24,-0.65 0.16,-0.13 0.41,-0.2 0.74,-0.2z"/>
  <path id="_7" fill="#041532" fill-rule="nonzero" d="M27.88 4.82l0 0.78 -1.47 0c-0.24,0 -0.36,0.09 -0.36,0.27l0 0.59c0,0.18 0.12,0.27 0.36,0.27l1.47 0 0 0.78 -1.47 0c-0.4,0 -0.71,-0.08 -0.91,-0.25 -0.2,-0.17 -0.3,-0.43 -0.3,-0.8l0 -0.59c0,-0.37 0.1,-0.64 0.3,-0.81 0.2,-0.16 0.51,-0.24 0.91,-0.24l1.47 0z"/>
  <polygon id="_8" fill="#041532" fill-rule="nonzero" points="28.24,4.82 29.09,4.82 29.09,6.73 30.82,6.73 30.82,7.51 28.24,7.51 "/>
  <polygon id="_9" fill="#041532" fill-rule="nonzero" points="31.09,7.51 31.09,4.82 33.71,4.82 33.71,5.6 31.94,5.6 31.94,5.81 33.51,5.81 33.51,6.52 31.94,6.52 31.94,6.73 33.71,6.73 33.71,7.51 "/>
  <path id="_10" fill="#041532" fill-rule="nonzero" d="M33.86 7.51l1.21 -2.69 0.97 0 1.21 2.69 -0.89 0 -0.16 -0.35 -1.29 0 -0.16 0.35 -0.89 0zm1.69 -1.79l-0.32 0.73 0.65 0 -0.33 -0.73z"/>
  <path id="_11" fill="#041532" fill-rule="nonzero" d="M37.4 4.82l1.73 0c0.41,0 0.71,0.08 0.91,0.24 0.2,0.17 0.3,0.44 0.3,0.81 0,0.47 -0.17,0.78 -0.51,0.93l0.57 0.71 -1 0 -0.48 -0.59 -0.67 0 0 0.59 -0.85 0 0 -2.69zm1.73 0.78l-0.88 0 0 0.54 0.88 0c0.24,0 0.37,-0.09 0.37,-0.27 0,-0.18 -0.13,-0.27 -0.37,-0.27z"/>
  <path id="_12" fill="#041532" fill-rule="nonzero" d="M40.42 7.51l1.21 -2.69 0.96 0 1.21 2.69 -0.88 0 -0.16 -0.35 -1.3 0 -0.15 0.35 -0.89 0zm1.69 -1.79l-0.33 0.73 0.66 0 -0.33 -0.73z"/>
  <polygon id="_13" fill="#041532" fill-rule="nonzero" points="43.96,4.82 44.8,4.82 45.99,6.27 45.99,4.82 46.83,4.82 46.83,7.51 45.99,7.51 44.8,6.05 44.8,7.51 43.96,7.51 "/>
  <path id="_14" fill="#041532" fill-rule="nonzero" d="M49.86 4.82l0 0.78 -1.46 0c-0.25,0 -0.37,0.09 -0.37,0.27l0 0.59c0,0.18 0.12,0.27 0.37,0.27l1.46 0 0 0.78 -1.46 0c-0.41,0 -0.72,-0.08 -0.92,-0.25 -0.2,-0.17 -0.3,-0.43 -0.3,-0.8l0 -0.59c0,-0.37 0.1,-0.64 0.3,-0.81 0.2,-0.16 0.51,-0.24 0.92,-0.24l1.46 0z"/>
  <polygon id="_15" fill="#041532" fill-rule="nonzero" points="50.22,7.51 50.22,4.82 52.84,4.82 52.84,5.6 51.07,5.6 51.07,5.81 52.64,5.81 52.64,6.52 51.07,6.52 51.07,6.73 52.84,6.73 52.84,7.51 "/>
  <path id="_16" fill="#041532" fill-rule="nonzero" d="M56.35 7.1l-0.88 0 0 0.41 -0.84 0 0 -2.69 1.72 0c0.42,0 0.72,0.08 0.92,0.24 0.2,0.17 0.3,0.44 0.3,0.81l0 0.18c0,0.37 -0.1,0.63 -0.3,0.8 -0.2,0.17 -0.51,0.25 -0.92,0.25zm0 -1.5l-0.88 0 0 0.72 0.88 0c0.25,0 0.37,-0.09 0.37,-0.27l0 -0.18c0,-0.18 -0.12,-0.27 -0.37,-0.27z"/>
  <polygon id="_17" fill="#041532" fill-rule="nonzero" points="57.76,5.6 57.76,4.82 60.49,4.82 60.49,5.6 59.55,5.6 59.55,7.51 58.71,7.51 58.71,5.6 "/>
  <polygon id="_18" fill="#041532" fill-rule="nonzero" points="62.77,4.82 63.78,4.82 62.56,6.32 62.56,7.51 61.71,7.51 61.71,6.32 60.49,4.82 61.5,4.82 62.13,5.6 "/>
  <path fill="#616669" fill-rule="nonzero" d="M25.2 10.13l0.97 0 0 -0.18 -0.79 0 0 -1.32 -0.18 0 0 1.5zm1.79 -1.5l0 1.5 0.96 0 0 -0.18 -0.78 0 0 -0.49 0.74 0 0 -0.17 -0.74 0 0 -0.49 0.76 0 0 -0.17 -0.94 0zm2.78 0l-1.09 0 0 0.17 0.46 0 0 1.33 0.17 0 0 -1.33 0.46 0 0 -0.17zm3.01 0.97l0 -0.97 -0.18 0 0 0.97c0,0.25 -0.1,0.39 -0.32,0.39 -0.21,0 -0.32,-0.14 -0.32,-0.39l0 -0.97 -0.18 0 0 0.97c0,0.34 0.19,0.56 0.5,0.56 0.31,0 0.5,-0.22 0.5,-0.56zm0.94 0.04l-0.18 0.01c0.02,0.3 0.26,0.5 0.57,0.5 0.25,0 0.5,-0.14 0.5,-0.42 0,-0.23 -0.21,-0.36 -0.47,-0.44 -0.19,-0.05 -0.38,-0.1 -0.38,-0.29 0,-0.14 0.12,-0.23 0.27,-0.23 0.19,0 0.34,0.12 0.36,0.31l0.19 -0.01c-0.03,-0.27 -0.24,-0.47 -0.54,-0.47 -0.27,0 -0.47,0.15 -0.47,0.4 0,0.24 0.22,0.36 0.44,0.43 0.28,0.07 0.42,0.17 0.42,0.32 0,0.15 -0.13,0.23 -0.31,0.23 -0.21,0 -0.36,-0.14 -0.4,-0.34zm2.93 0.49l0.17 0 0 -0.67 0.61 0 0 0.67 0.18 0 0 -1.5 -0.18 0 0 0.65 -0.61 0 0 -0.65 -0.17 0 0 1.5zm1.69 0l0.18 0 0.13 -0.43 0.54 0 0.12 0.43 0.18 0 -0.45 -1.5 -0.24 0 -0.46 1.5zm0.36 -0.59l0.22 -0.76 0.22 0.76 -0.44 0zm1.54 -0.91l0 1.5 0.18 0 0 -1.24 0.48 1.24 0.28 0 0 -1.5 -0.18 0 0 1.27 -0.5 -1.27 -0.26 0zm2.15 0l-0.36 0 0 1.5 0.37 0c0.42,0 0.67,-0.27 0.67,-0.75 0,-0.48 -0.26,-0.75 -0.68,-0.75zm-0.18 1.32l0 -1.15 0.18 0c0.32,0 0.5,0.19 0.5,0.58 0,0.38 -0.18,0.57 -0.5,0.57l-0.18 0zm1.64 0.18l0.97 0 0 -0.18 -0.79 0 0 -1.32 -0.18 0 0 1.5zm1.79 -1.5l0 1.5 0.96 0 0 -0.18 -0.78 0 0 -0.49 0.74 0 0 -0.17 -0.74 0 0 -0.49 0.76 0 0 -0.17 -0.94 0zm3.93 0l-0.86 0 0 0.17 0.34 0 0 1.15 -0.35 0 0 0.18 0.88 0 0 -0.18 -0.35 0 0 -1.15 0.34 0 0 -0.17zm1.91 0l-1.1 0 0 0.17 0.46 0 0 1.33 0.18 0 0 -1.33 0.46 0 0 -0.17zm1.15 0l0 0.49c0,0.19 0.02,0.38 0.04,0.57l0.11 0c0.01,-0.19 0.03,-0.38 0.03,-0.57l0 -0.49 -0.18 0zm-0.03 1.5l0.24 0 0 -0.24 -0.24 0 0 0.24z"/>
 </g>
</svg>
