<svg viewBox="0 0 43.77 9.36"><path d="M7.37 3.93c.2-.11.96-.25 1.24-.3 1.08-.19 2.33-.18 3.37.2.19.07.32.17.34.4.05.51-.3.31.2.83.04.05.16.16.26.07.1-.08.23-1.07.25-1.27.02-.26-.05-.42-.27-.51-.54-.22-1.18-.39-1.78-.49-1.42-.25-2.64-.01-3.92.47-.21.08-.44.08-.43.33l.2 1.31c.05.32.04.35.27.5.31.21.59.37.93.59.17.11.8.51.93.57.34.13.94.28 1.25.07-.01-.17-.25-.27-.36-.34l-1.29-.81C8.26 5.36 8 5.2 7.7 5c-.1-.06-.13-.07-.16-.19-.04-.16-.18-.78-.17-.88m5.09 3.21 4.85-1.76-.16.41c-1.42.55-3.53 1.28-5.62 2.69.37-.4.69-.85.93-1.34m4.9-1.97-.99.37-3.76 1.31c.1-.22.23-.5.27-.7.09-.26.17-.54.24-.8.01-.01.03-.02.04-.04.13-.11.19-.49.23-.69 1.14-.11 3.14-1.03 3.32-1.28.96-1.17 1.84-2.39 2.17-2.92.01-.02.05-.06.06-.07l.03-.03c.01 0 .02-.01.03-.01l.02-.02.05-.05.04-.03c.02-.02.05-.03.07-.04l.15-.08h.02l.05-.02c.01-.01.01-.01.03-.01.02-.01.02-.01.03-.01.02-.01.01 0 .03-.01l.1-.02h.04c0-.01 0-.01.01-.01.03 0 .02.03.01.04l-.09.19c0 .01-.01.03-.01.04l-.05.09v.02c-.7 1.5-1.57 3.23-2.14 4.78"/><path d="M15.35 3.88c-.65.23-1.28.45-1.93.53.03-.17.05-.36.07-.53V3.7c.46.31 1.21.3 1.86.18m-8.1 3.26-4.9-1.78.16.41c1.42.56 3.54 1.38 5.73 2.68l-.1-.14c-.28-.34-.54-.69-.81-1.03a.4.4 0 0 1-.08-.14M2.3 5.16l1 .37 3.75 1.31c-.1-.22-.23-.5-.27-.7-.06-.18-.12-.38-.18-.57-.17-.15-.19-.27-.23-.56l-.06-.4C5.16 4.5 3.13 3.58 2.95 3.33 1.99 2.15 1.11.93.78.41A.4.4 0 0 0 .72.34L.69.31C.68.3.67.3.66.29L.64.27C.62.25.6.24.59.23L.55.2C.53.18.5.17.48.15L.33.08.32.07.26.05C.25.05.25.05.23.04.21.04.21.04.2.03.18.03.19.03.17.02L.07.01C.06.01.04.01.03 0H.02C-.01 0 0 .02.01.03l.09.2c0 .01.01.02.01.04l.05.09v.02c.7 1.5 1.57 3.22 2.14 4.78"/><path d="M4.31 3.87c.65.22 1.32.45 1.97.53l-.11-.71v-.01c-.46.31-1.21.3-1.86.19m3.88 3.2c-.26-.18-.27-.23-.51-.23 0 .15-.02.19.06.29.47.6 1.12 1.48 1.68 1.96.39.33.29.38.8.03a5.6 5.6 0 0 0 1.84-2.15c.08-.16.38-.77.37-.94-.02-.06-1.78-1.12-2.1-1.32-.53-.33-.9-.37-1.45-.15l.05.05.01.01.88.52c.55.32 1.1.68 1.65.99.11.06.15.1.08.25-.28.6-.8 1.32-1.27 1.74-.5.45-.4.4-.86-.03-.26-.24-.49-.51-.79-.72-.14-.1-.3-.2-.44-.3M23.09.94v.65h-1.21c-.21 0-.31.08-.31.22v.49c0 .15.1.23.31.23h1.21v.64h-1.21c-.34 0-.59-.07-.76-.2-.16-.14-.25-.36-.25-.67v-.49c0-.3.09-.52.25-.66.17-.14.42-.21.76-.21zm2.06 0h.7V2.3c0 .31-.08.53-.25.67-.16.13-.41.2-.75.2h-.47c-.34 0-.59-.07-.75-.2-.17-.14-.25-.36-.25-.67V.94h.7V2.3c0 .15.1.23.3.23h.47c.2 0 .3-.08.3-.23zm1.79 0h1.42v.65h-1.42q-.12 0-.12.09c0 .06.04.08.12.08h.67c.28 0 .48.06.62.17.13.11.2.29.2.54s-.07.42-.2.54c-.14.11-.34.16-.62.16h-1.42v-.64h1.42q.12 0 .12-.09t-.12-.09h-.67c-.28 0-.48-.05-.62-.16-.13-.12-.2-.3-.2-.54 0-.25.07-.43.2-.54.14-.11.34-.17.62-.17m1.67.65V.94h2.26v.65h-.78v1.58h-.7V1.59zm3.46-.65h.61c.34 0 .59.07.76.21q.24.21.24.66v.49c0 .31-.08.53-.24.67-.17.13-.42.2-.76.2h-.61c-.34 0-.59-.07-.76-.2-.16-.14-.24-.36-.24-.67v-.49q0-.45.24-.66c.17-.14.42-.21.76-.21m0 1.59h.61c.2 0 .3-.08.3-.23v-.49c0-.14-.1-.22-.3-.22h-.61c-.2 0-.31.08-.31.22v.49c0 .15.11.23.31.23M34.68.94l.68.84.68-.84h.7v2.23h-.7v-1.2l-.68.84-.68-.84v1.2h-.7V.94zm3.16 0h1.42v.65h-1.42c-.08 0-.11.03-.11.09s.03.08.11.08h.67c.28 0 .49.06.62.17s.2.29.2.54-.07.42-.2.54c-.13.11-.34.16-.62.16H37.1v-.64h1.41q.12 0 .12-.09t-.12-.09h-.67c-.27 0-.48-.05-.61-.16-.14-.12-.2-.3-.2-.54 0-.25.06-.43.2-.54.13-.11.34-.17.61-.17M23.09 3.83v.64h-1.21c-.21 0-.31.08-.31.23v.48c0 .15.1.23.31.23h1.21v.64h-1.21c-.34 0-.59-.06-.76-.2-.16-.14-.25-.36-.25-.67V4.7c0-.31.09-.53.25-.67.17-.14.42-.2.76-.2zm.3 0h.7v1.58h1.44v.64h-2.14zm2.36 2.22V3.83h2.17v.64h-1.47v.18h1.3v.58h-1.3v.18h1.47v.64zm2.3 0 1-2.22h.8l1 2.22h-.73l-.13-.29h-1.08l-.13.29zm1.4-1.48-.27.61h.54zm1.53-.74h1.43c.34 0 .59.06.76.2.16.14.24.36.24.67 0 .39-.14.65-.42.77l.47.58h-.83l-.4-.48h-.55v.48h-.7zm1.43.64h-.73v.45h.73c.2 0 .3-.07.3-.22s-.1-.23-.3-.23m1.07 1.58 1-2.22h.8l1 2.22h-.73l-.13-.29h-1.08l-.13.29zm1.4-1.48-.27.61h.54zm1.53-.74h.7l.98 1.2v-1.2h.7v2.22h-.7l-.98-1.2v1.2h-.7zm4.89 0v.64h-1.21c-.21 0-.31.08-.31.23v.48c0 .15.1.23.31.23h1.21v.64h-1.21c-.34 0-.6-.06-.76-.2-.17-.14-.25-.36-.25-.67V4.7c0-.31.08-.53.25-.67.16-.14.42-.2.76-.2zm.3 2.22V3.83h2.17v.64H42.3v.18h1.3v.58h-1.3v.18h1.47v.64zM20.87 8.39h.81v-.15h-.66V7.15h-.15zm1.49-1.24v1.24h.79v-.15h-.65v-.41h.61V7.7h-.61v-.41h.63v-.14zm2.3 0h-.91v.14h.38v1.1h.15v-1.1h.38zm2.49.8v-.8H27v.8c0 .21-.09.32-.26.32-.18 0-.27-.11-.27-.32v-.8h-.15v.8c0 .29.16.46.42.46s.41-.17.41-.46m.78.03-.15.01c.02.25.22.42.47.42.21 0 .42-.12.42-.35 0-.19-.18-.3-.39-.36-.16-.05-.32-.09-.32-.24 0-.12.1-.2.23-.2.15 0 .28.11.3.26l.15-.01c-.02-.23-.2-.39-.45-.39-.22 0-.39.13-.39.34 0 .2.18.29.37.35.23.06.34.14.34.26 0 .13-.11.19-.25.19-.18 0-.3-.11-.33-.28m2.42.41h.15v-.56h.5v.56h.15V7.15H31v.54h-.5v-.54h-.15zm1.41 0h.15l.1-.36h.45l.1.36h.15l-.38-1.24h-.19zm.29-.49.18-.62.19.62zm1.28-.75v1.24h.15V7.37l.4 1.02h.22V7.15h-.14V8.2l-.42-1.05zm1.78 0h-.3v1.24h.31c.34 0 .55-.23.55-.62 0-.4-.21-.62-.56-.62m-.15 1.09v-.95h.15c.26 0 .41.16.41.48 0 .31-.15.47-.41.47zm1.36.15h.8v-.15h-.65V7.15h-.15zm1.48-1.24v1.24h.79v-.15h-.64v-.41h.61V7.7h-.61v-.41h.63v-.14zm3.26 0h-.72v.14h.29v.95h-.3v.15h.74v-.15h-.3v-.95h.29zm1.58 0h-.91v.14h.38v1.1h.15v-1.1h.38zm.95 0v.4c0 .16.02.32.03.48h.09c.01-.16.03-.32.03-.48v-.4zm-.03 1.24h.21v-.2h-.21z"/></svg>