<?xml version="1.0" encoding="UTF-8"?>
<!DOCTYPE svg PUBLIC "-//W3C//DTD SVG 1.1//EN" "http://www.w3.org/Graphics/SVG/1.1/DTD/svg11.dtd">
<!-- Creator: CorelDRAW 2021.5 -->
<svg xmlns="http://www.w3.org/2000/svg" xml:space="preserve" width="833px" height="513px" version="1.1" shape-rendering="geometricPrecision" text-rendering="geometricPrecision" image-rendering="optimizeQuality" fill-rule="evenodd" clip-rule="evenodd"
viewBox="0 0 78.05 48.02"
 xmlns:xlink="http://www.w3.org/1999/xlink"
 xmlns:xodm="http://www.corel.com/coreldraw/odm/2003">
 <g id="Layer_x0020_1">
  <metadata id="CorelCorpID_0Corel-Layer"/>
  <g id="_105553392767520">
   <path fill="#616669" d="M29.37 15.44c0.76,-0.44 3.77,-0.96 4.88,-1.16 4.23,-0.75 9.15,-0.73 13.22,0.77 0.75,0.28 1.25,0.68 1.33,1.59 0.19,1.99 -1.17,1.18 0.79,3.26 0.18,0.18 0.61,0.63 1.02,0.27 0.39,-0.34 0.91,-4.22 0.97,-4.99 0.08,-1.02 -0.18,-1.65 -1.03,-2 -2.14,-0.88 -4.65,-1.53 -7.02,-1.94 -5.56,-0.96 -10.38,-0.05 -15.41,1.84 -0.82,0.31 -1.71,0.33 -1.66,1.32l0.77 5.14c0.2,1.26 0.18,1.39 1.06,1.96 1.23,0.81 2.33,1.46 3.64,2.3 0.7,0.44 3.15,2.02 3.68,2.24 1.34,0.54 3.68,1.11 4.9,0.3 -0.04,-0.69 -0.96,-1.08 -1.42,-1.36l-5.07 -3.19c-1.17,-0.72 -2.17,-1.37 -3.38,-2.13 -0.37,-0.23 -0.49,-0.27 -0.62,-0.74 -0.16,-0.65 -0.72,-3.1 -0.65,-3.48z"/>
   <path fill="#616669" d="M49.38 28.06l19.04 -6.93 -0.61 1.61c-5.58,2.19 -13.88,5.05 -22.09,10.6 1.45,-1.59 2.68,-3.38 3.66,-5.28z"/>
   <path fill="#041532" d="M68.62 20.32l-3.92 1.46 -14.76 5.13c0.41,-0.85 0.9,-1.95 1.07,-2.73 0.35,-1.02 0.67,-2.12 0.94,-3.17 0.05,-0.04 0.1,-0.08 0.15,-0.12 0.53,-0.46 0.76,-1.94 0.89,-2.73 4.52,-0.44 12.36,-4.05 13.06,-5.02 3.8,-4.62 7.24,-9.42 8.55,-11.5 0.04,-0.06 0.19,-0.21 0.23,-0.25l0.12 -0.12c0.03,-0.03 0.06,-0.05 0.09,-0.07l0.09 -0.08c0.08,-0.07 0.16,-0.13 0.2,-0.16l0.16 -0.12c0.08,-0.07 0.19,-0.13 0.28,-0.19l0.58 -0.29c0,0 0.06,-0.02 0.06,-0.02l0.23 -0.08c0.04,-0.01 0.04,-0.03 0.11,-0.04 0.06,-0.01 0.08,-0.03 0.12,-0.04 0.07,-0.02 0.03,0 0.12,-0.03l0.39 -0.07c0.05,0 0.1,0 0.14,-0.02 0.02,0 0.03,-0.01 0.06,-0.01 0.13,0 0.05,0.09 0.04,0.13l-0.35 0.77c-0.02,0.05 -0.05,0.1 -0.07,0.16l-0.16 0.36c-0.01,0.01 -0.01,0.02 -0.02,0.03 -0.01,0.02 0,0.02 -0.01,0.04 -2.73,5.9 -6.14,12.67 -8.39,18.78z"/>
   <path fill="#616669" d="M60.7 15.26c-2.54,0.87 -5.03,1.75 -7.57,2.08 0.11,-0.69 0.21,-1.41 0.27,-2.09 0.01,-0.25 0.02,-0.49 0,-0.72 1.8,1.21 4.78,1.17 7.3,0.73z"/>
   <path fill="#616669" d="M28.87 28.05l-19.24 -6.98 0.61 1.62c5.58,2.18 13.93,5.39 22.55,10.5l-0.42 -0.53c-1.09,-1.33 -2.12,-2.71 -3.17,-4.07 -0.15,-0.2 -0.26,-0.37 -0.33,-0.54z"/>
   <path fill="#041532" d="M9.43 20.27l3.91 1.46 14.77 5.13c-0.42,-0.85 -0.9,-1.95 -1.07,-2.73 -0.25,-0.72 -0.48,-1.48 -0.69,-2.24 -0.68,-0.58 -0.75,-1.08 -0.92,-2.21l-0.24 -1.57c-4.51,-0.44 -12.49,-4.06 -13.19,-5.02 -3.8,-4.63 -7.25,-9.42 -8.55,-11.5 -0.04,-0.06 -0.19,-0.21 -0.23,-0.25l-0.12 -0.13c-0.03,-0.02 -0.06,-0.04 -0.09,-0.06l-0.09 -0.08c-0.08,-0.08 -0.17,-0.13 -0.2,-0.16l-0.16 -0.12c-0.09,-0.08 -0.19,-0.13 -0.29,-0.19l-0.58 -0.29c0,0 -0.05,-0.02 -0.06,-0.02l-0.22 -0.08c-0.05,-0.02 -0.04,-0.03 -0.12,-0.05 -0.05,-0.01 -0.07,-0.02 -0.11,-0.03 -0.07,-0.02 -0.03,0 -0.12,-0.04l-0.39 -0.06c-0.05,0 -0.1,-0.01 -0.14,-0.02 -0.02,-0.01 -0.03,-0.01 -0.06,-0.01 -0.13,0 -0.06,0.09 -0.04,0.13l0.35 0.77c0.02,0.05 0.05,0.1 0.06,0.15l0.17 0.37c0,0.01 0.01,0.01 0.02,0.03 0.01,0.02 0,0.02 0.01,0.04 2.73,5.9 6.14,12.67 8.39,18.78z"/>
   <path fill="#616669" d="M17.35 15.21c2.54,0.87 5.18,1.76 7.72,2.08l-0.42 -2.77 0 -0.04c-1.8,1.21 -4.78,1.17 -7.3,0.73z"/>
   <path fill="#041532" d="M32.58 27.79c-1.03,-0.7 -1.08,-0.92 -1.99,-0.9 -0.03,0.57 -0.08,0.72 0.22,1.11 1.86,2.39 4.38,5.85 6.58,7.71 1.54,1.3 1.18,1.49 3.17,0.12 3.09,-2.13 5.56,-5.11 7.22,-8.43 0.31,-0.63 1.51,-3.05 1.47,-3.71 -0.09,-0.23 -7,-4.39 -8.26,-5.17 -2.07,-1.29 -3.52,-1.45 -5.71,-0.62l0.19 0.21c0.01,0.01 0.03,0.02 0.05,0.03l3.45 2.06c2.16,1.24 4.34,2.67 6.51,3.9 0.42,0.24 0.6,0.39 0.32,0.97 -1.13,2.37 -3.14,5.2 -5.02,6.86 -1.97,1.73 -1.55,1.55 -3.36,-0.13 -1.02,-0.95 -1.92,-2 -3.11,-2.82 -0.56,-0.39 -1.17,-0.8 -1.73,-1.19z"/>
  </g>
  <path fill="#041532" fill-rule="nonzero" d="M3.34 40.54l0 0.98 -1.83 0c-0.3,0 -0.46,0.11 -0.46,0.33l0 0.74c0,0.22 0.16,0.33 0.46,0.33l1.83 0 0 0.98 -1.83 0c-0.51,0 -0.89,-0.1 -1.14,-0.31 -0.25,-0.21 -0.37,-0.54 -0.37,-1l0 -0.74c0,-0.46 0.12,-0.79 0.37,-1 0.25,-0.21 0.63,-0.31 1.14,-0.31l1.83 0z"/>
  <path id="_1" fill="#041532" fill-rule="nonzero" d="M6.45 40.54l1.05 0 0 2.05c0,0.46 -0.12,0.79 -0.37,1 -0.25,0.21 -0.63,0.31 -1.14,0.31l-0.7 0c-0.51,0 -0.89,-0.1 -1.14,-0.31 -0.25,-0.21 -0.37,-0.54 -0.37,-1l0 -2.05 1.05 0 0 2.05c0,0.22 0.16,0.33 0.46,0.33l0.7 0c0.3,0 0.46,-0.11 0.46,-0.33l0 -2.05z"/>
  <path id="_2" fill="#041532" fill-rule="nonzero" d="M9.15 40.54l2.13 0 0 0.98 -2.13 0c-0.12,0 -0.18,0.04 -0.18,0.13 0,0.09 0.06,0.13 0.18,0.13l1 0c0.42,0 0.73,0.08 0.93,0.25 0.2,0.17 0.31,0.44 0.31,0.81 0,0.37 -0.11,0.64 -0.31,0.81 -0.2,0.16 -0.51,0.25 -0.93,0.25l-2.13 0 0 -0.98 2.13 0c0.12,0 0.18,-0.04 0.18,-0.13 0,-0.09 -0.06,-0.13 -0.18,-0.13l-1 0c-0.42,0 -0.73,-0.08 -0.94,-0.25 -0.2,-0.17 -0.3,-0.44 -0.3,-0.81 0,-0.37 0.1,-0.64 0.3,-0.81 0.21,-0.17 0.52,-0.25 0.94,-0.25z"/>
  <polygon id="_3" fill="#041532" fill-rule="nonzero" points="11.66,41.52 11.66,40.54 15.07,40.54 15.07,41.52 13.89,41.52 13.89,43.9 12.84,43.9 12.84,41.52 "/>
  <path id="_4" fill="#041532" fill-rule="nonzero" d="M16.88 40.54l0.91 0c0.52,0 0.9,0.1 1.14,0.31 0.25,0.21 0.38,0.54 0.38,1l0 0.74c0,0.46 -0.13,0.79 -0.38,1 -0.24,0.21 -0.62,0.31 -1.14,0.31l-0.91 0c-0.52,0 -0.9,-0.1 -1.15,-0.31 -0.24,-0.21 -0.37,-0.54 -0.37,-1l0 -0.74c0,-0.46 0.13,-0.79 0.37,-1 0.25,-0.21 0.63,-0.31 1.15,-0.31zm0 2.38l0.91 0c0.31,0 0.46,-0.11 0.46,-0.33l0 -0.74c0,-0.22 -0.15,-0.33 -0.46,-0.33l-0.91 0c-0.31,0 -0.46,0.11 -0.46,0.33l0 0.74c0,0.22 0.15,0.33 0.46,0.33z"/>
  <polygon id="_5" fill="#041532" fill-rule="nonzero" points="20.81,40.54 21.84,41.8 22.86,40.54 23.92,40.54 23.92,43.9 22.86,43.9 22.86,42.08 21.84,43.35 20.81,42.08 20.81,43.9 19.75,43.9 19.75,40.54 "/>
  <path id="_6" fill="#041532" fill-rule="nonzero" d="M25.58 40.54l2.14 0 0 0.98 -2.14 0c-0.12,0 -0.18,0.04 -0.18,0.13 0,0.09 0.06,0.13 0.18,0.13l1.01 0c0.41,0 0.72,0.08 0.93,0.25 0.2,0.17 0.3,0.44 0.3,0.81 0,0.37 -0.1,0.64 -0.3,0.81 -0.21,0.16 -0.52,0.25 -0.93,0.25l-2.14 0 0 -0.98 2.14 0c0.12,0 0.18,-0.04 0.18,-0.13 0,-0.09 -0.06,-0.13 -0.18,-0.13l-1.01 0c-0.42,0 -0.73,-0.08 -0.93,-0.25 -0.2,-0.17 -0.3,-0.44 -0.3,-0.81 0,-0.37 0.1,-0.64 0.3,-0.81 0.2,-0.17 0.51,-0.25 0.93,-0.25z"/>
  <path id="_7" fill="#041532" fill-rule="nonzero" d="M33.23 40.54l0 0.98 -1.82 0c-0.31,0 -0.46,0.11 -0.46,0.33l0 0.74c0,0.22 0.15,0.33 0.46,0.33l1.82 0 0 0.98 -1.82 0c-0.52,0 -0.9,-0.1 -1.15,-0.31 -0.25,-0.21 -0.37,-0.54 -0.37,-1l0 -0.74c0,-0.46 0.12,-0.79 0.37,-1 0.25,-0.21 0.63,-0.31 1.15,-0.31l1.82 0z"/>
  <polygon id="_8" fill="#041532" fill-rule="nonzero" points="33.69,40.54 34.74,40.54 34.74,42.92 36.91,42.92 36.91,43.9 33.69,43.9 "/>
  <polygon id="_9" fill="#041532" fill-rule="nonzero" points="37.24,43.9 37.24,40.54 40.51,40.54 40.51,41.52 38.3,41.52 38.3,41.78 40.26,41.78 40.26,42.66 38.3,42.66 38.3,42.92 40.51,42.92 40.51,43.9 "/>
  <path id="_10" fill="#041532" fill-rule="nonzero" d="M40.7 43.9l1.51 -3.36 1.21 0 1.51 3.36 -1.11 0 -0.19 -0.44 -1.62 0 -0.2 0.44 -1.11 0zm2.12 -2.24l-0.41 0.91 0.82 0 -0.41 -0.91z"/>
  <path id="_11" fill="#041532" fill-rule="nonzero" d="M45.12 40.54l2.16 0c0.51,0 0.89,0.1 1.14,0.31 0.25,0.21 0.37,0.54 0.37,1 0,0.59 -0.21,0.98 -0.64,1.17l0.72 0.88 -1.26 0 -0.6 -0.74 -0.83 0 0 0.74 -1.06 0 0 -3.36zm2.16 0.98l-1.1 0 0 0.67 1.1 0c0.3,0 0.46,-0.11 0.46,-0.34 0,-0.22 -0.16,-0.33 -0.46,-0.33z"/>
  <path id="_12" fill="#041532" fill-rule="nonzero" d="M48.89 43.9l1.51 -3.36 1.2 0 1.51 3.36 -1.1 0 -0.2 -0.44 -1.62 0 -0.19 0.44 -1.11 0zm2.11 -2.24l-0.41 0.91 0.82 0 -0.41 -0.91z"/>
  <polygon id="_13" fill="#041532" fill-rule="nonzero" points="53.31,40.54 54.36,40.54 55.84,42.35 55.84,40.54 56.89,40.54 56.89,43.9 55.84,43.9 54.36,42.08 54.36,43.9 53.31,43.9 "/>
  <path id="_14" fill="#041532" fill-rule="nonzero" d="M60.67 40.54l0 0.98 -1.82 0c-0.31,0 -0.46,0.11 -0.46,0.33l0 0.74c0,0.22 0.15,0.33 0.46,0.33l1.82 0 0 0.98 -1.82 0c-0.51,0 -0.9,-0.1 -1.14,-0.31 -0.25,-0.21 -0.38,-0.54 -0.38,-1l0 -0.74c0,-0.46 0.13,-0.79 0.38,-1 0.24,-0.21 0.63,-0.31 1.14,-0.31l1.82 0z"/>
  <polygon id="_15" fill="#041532" fill-rule="nonzero" points="61.13,43.9 61.13,40.54 64.4,40.54 64.4,41.52 62.18,41.52 62.18,41.78 64.15,41.78 64.15,42.66 62.18,42.66 62.18,42.92 64.4,42.92 64.4,43.9 "/>
  <path id="_16" fill="#041532" fill-rule="nonzero" d="M68.78 43.39l-1.1 0 0 0.51 -1.05 0 0 -3.36 2.15 0c0.52,0 0.89,0.1 1.14,0.31 0.25,0.21 0.38,0.54 0.38,1l0 0.23c0,0.46 -0.13,0.79 -0.38,1 -0.25,0.21 -0.63,0.31 -1.14,0.31zm0 -1.87l-1.1 0 0 0.89 1.1 0c0.31,0 0.46,-0.11 0.46,-0.33l0 -0.23c0,-0.22 -0.15,-0.33 -0.46,-0.33z"/>
  <polygon id="_17" fill="#041532" fill-rule="nonzero" points="70.54,41.52 70.54,40.54 73.95,40.54 73.95,41.52 72.77,41.52 72.77,43.9 71.72,43.9 71.72,41.52 "/>
  <polygon id="_18" fill="#041532" fill-rule="nonzero" points="76.79,40.54 78.05,40.54 76.53,42.41 76.53,43.9 75.47,43.9 75.47,42.41 73.95,40.54 75.2,40.54 76,41.52 "/>
  <polygon fill="#616669" fill-rule="nonzero" points="19.36,47.97 20.74,47.97 20.74,47.73 19.61,47.73 19.61,45.84 19.36,45.84 "/>
  <polygon id="_1_0" fill="#616669" fill-rule="nonzero" points="21.91,45.84 21.91,47.97 23.27,47.97 23.27,47.73 22.16,47.73 22.16,47.02 23.21,47.02 23.21,46.78 22.16,46.78 22.16,46.09 23.24,46.09 23.24,45.84 "/>
  <polygon id="_2_1" fill="#616669" fill-rule="nonzero" points="25.86,45.84 24.31,45.84 24.31,46.09 24.96,46.09 24.96,47.97 25.21,47.97 25.21,46.09 25.86,46.09 "/>
  <path id="_3_2" fill="#616669" fill-rule="nonzero" d="M30.14 47.23l0 -1.39 -0.25 0 0 1.39c0,0.35 -0.15,0.54 -0.46,0.54 -0.3,0 -0.46,-0.19 -0.46,-0.54l0 -1.39 -0.25 0 0 1.39c0,0.48 0.27,0.79 0.71,0.79 0.45,0 0.71,-0.31 0.71,-0.79z"/>
  <path id="_4_3" fill="#616669" fill-rule="nonzero" d="M31.49 47.28l-0.27 0.01c0.03,0.43 0.38,0.72 0.81,0.72 0.36,0 0.72,-0.21 0.72,-0.6 0,-0.32 -0.31,-0.51 -0.67,-0.62 -0.27,-0.08 -0.55,-0.15 -0.55,-0.41 0,-0.21 0.18,-0.34 0.4,-0.34 0.26,0 0.47,0.18 0.51,0.45l0.26 -0.02c-0.04,-0.39 -0.34,-0.68 -0.77,-0.68 -0.38,0 -0.66,0.23 -0.66,0.59 0,0.34 0.31,0.51 0.63,0.6 0.4,0.11 0.58,0.24 0.58,0.46 0,0.21 -0.18,0.32 -0.43,0.32 -0.31,0 -0.51,-0.2 -0.56,-0.48z"/>
  <polygon id="_5_4" fill="#616669" fill-rule="nonzero" points="35.64,47.97 35.89,47.97 35.89,47.02 36.76,47.02 36.76,47.97 37.01,47.97 37.01,45.84 36.76,45.84 36.76,46.78 35.89,46.78 35.89,45.84 35.64,45.84 "/>
  <path id="_6_5" fill="#616669" fill-rule="nonzero" d="M38.06 47.97l0.26 0 0.18 -0.61 0.76 0 0.18 0.61 0.26 0 -0.66 -2.13 -0.33 0 -0.65 2.13zm0.5 -0.84l0.32 -1.07 0.31 1.07 -0.63 0z"/>
  <polygon id="_7_6" fill="#616669" fill-rule="nonzero" points="40.76,45.84 40.76,47.97 41.01,47.97 41.01,46.22 41.7,47.97 42.09,47.97 42.09,45.84 41.84,45.84 41.84,47.65 41.12,45.84 "/>
  <path id="_8_7" fill="#616669" fill-rule="nonzero" d="M43.82 45.84l-0.52 0 0 2.13 0.53 0c0.59,0 0.95,-0.38 0.95,-1.06 0,-0.68 -0.37,-1.07 -0.96,-1.07zm-0.27 1.89l0 -1.64 0.27 0c0.44,0 0.7,0.27 0.7,0.82 0,0.54 -0.26,0.82 -0.7,0.82l-0.27 0z"/>
  <polygon id="_9_8" fill="#616669" fill-rule="nonzero" points="45.89,47.97 47.27,47.97 47.27,47.73 46.15,47.73 46.15,45.84 45.89,45.84 "/>
  <polygon id="_10_9" fill="#616669" fill-rule="nonzero" points="48.44,45.84 48.44,47.97 49.8,47.97 49.8,47.73 48.69,47.73 48.69,47.02 49.74,47.02 49.74,46.78 48.69,46.78 48.69,46.09 49.78,46.09 49.78,45.84 "/>
  <polygon id="_11_10" fill="#616669" fill-rule="nonzero" points="54.03,45.84 52.8,45.84 52.8,46.09 53.29,46.09 53.29,47.73 52.79,47.73 52.79,47.97 54.05,47.97 54.05,47.73 53.54,47.73 53.54,46.09 54.03,46.09 "/>
  <polygon id="_12_11" fill="#616669" fill-rule="nonzero" points="56.74,45.84 55.19,45.84 55.19,46.09 55.84,46.09 55.84,47.97 56.09,47.97 56.09,46.09 56.74,46.09 "/>
  <path id="_13_12" fill="#616669" fill-rule="nonzero" d="M58.39 45.84l0 0.7c0,0.27 0.03,0.54 0.04,0.82l0.16 0c0.02,-0.28 0.05,-0.55 0.05,-0.82l0 -0.7 -0.25 0zm-0.05 2.13l0.35 0 0 -0.34 -0.35 0 0 0.34z"/>
 </g>
</svg>
