<?xml version="1.0" encoding="UTF-8"?>
<!DOCTYPE svg PUBLIC "-//W3C//DTD SVG 1.1//EN" "http://www.w3.org/Graphics/SVG/1.1/DTD/svg11.dtd">
<!-- Creator: CorelDRAW 2021.5 -->
<svg xmlns="http://www.w3.org/2000/svg" xml:space="preserve" width="825px" height="392px" version="1.1" shape-rendering="geometricPrecision" text-rendering="geometricPrecision" image-rendering="optimizeQuality" fill-rule="evenodd" clip-rule="evenodd"
viewBox="0 0 106.36 50.63"
 xmlns:xlink="http://www.w3.org/1999/xlink"
 xmlns:xodm="http://www.corel.com/coreldraw/odm/2003">
 <g id="Layer_x0020_1">
  <metadata id="CorelCorpID_0Corel-Layer"/>
  <path fill="#616669" d="M39.89 21.25c1.04,-0.6 5.2,-1.32 6.71,-1.59 5.84,-1.03 12.6,-1 18.21,1.06 1.02,0.38 1.72,0.94 1.83,2.19 0.26,2.74 -1.62,1.63 1.09,4.48 0.24,0.26 0.84,0.87 1.4,0.37 0.53,-0.46 1.26,-5.8 1.34,-6.87 0.11,-1.4 -0.25,-2.26 -1.43,-2.75 -2.94,-1.2 -6.4,-2.11 -9.66,-2.67 -7.65,-1.32 -14.28,-0.06 -21.21,2.53 -1.13,0.43 -2.35,0.47 -2.28,1.82l1.06 7.08c0.27,1.73 0.24,1.91 1.45,2.69 1.7,1.12 3.21,2.02 5.01,3.17 0.96,0.61 4.34,2.79 5.08,3.09 1.84,0.74 5.06,1.52 6.73,0.41 -0.05,-0.95 -1.32,-1.48 -1.95,-1.88l-6.98 -4.38c-1.62,-0.99 -2.99,-1.89 -4.65,-2.93 -0.51,-0.32 -0.68,-0.38 -0.85,-1.03 -0.23,-0.88 -0.99,-4.26 -0.9,-4.79z"/>
  <path fill="#616669" d="M67.43 38.63l26.22 -9.55 -0.85 2.22c-7.68,3.02 -19.09,6.95 -30.41,14.59 2,-2.18 3.69,-4.64 5.04,-7.26z"/>
  <path fill="#041532" d="M93.93 27.98l-5.4 2.01 -20.32 7.06c0.56,-1.18 1.24,-2.69 1.47,-3.76 0.49,-1.41 0.92,-2.92 1.29,-4.37 0.07,-0.05 0.15,-0.11 0.21,-0.17 0.72,-0.63 1.05,-2.66 1.23,-3.75 6.21,-0.6 17.01,-5.58 17.97,-6.91 5.23,-6.37 9.98,-12.97 11.77,-15.83 0.05,-0.08 0.26,-0.29 0.32,-0.35l0.17 -0.17c0.04,-0.03 0.08,-0.05 0.12,-0.09l0.12 -0.11c0.12,-0.1 0.23,-0.17 0.28,-0.22l0.21 -0.17c0.12,-0.1 0.27,-0.17 0.4,-0.25l0.8 -0.41c0,0 0.08,-0.02 0.08,-0.02l0.31 -0.11c0.06,-0.02 0.06,-0.04 0.16,-0.06 0.08,-0.01 0.1,-0.03 0.16,-0.05 0.09,-0.03 0.04,0 0.16,-0.05l0.54 -0.09c0.07,0 0.14,0 0.19,-0.02 0.03,-0.01 0.05,-0.02 0.09,-0.02 0.17,0 0.07,0.13 0.05,0.18l-0.48 1.06c-0.03,0.06 -0.07,0.13 -0.09,0.21l-0.23 0.5c0,0.02 -0.01,0.03 -0.02,0.05 -0.01,0.03 -0.01,0.02 -0.02,0.05 -3.76,8.12 -8.45,17.45 -11.54,25.86z"/>
  <path fill="#616669" d="M83.02 21.01c-3.5,1.2 -6.93,2.41 -10.42,2.86 0.15,-0.95 0.29,-1.94 0.36,-2.88 0.03,-0.34 0.03,-0.67 0.01,-0.99 2.47,1.67 6.58,1.62 10.05,1.01z"/>
  <path fill="#616669" d="M39.21 38.62l-26.5 -9.61 0.84 2.22c7.69,3.01 19.18,7.43 31.04,14.47l-0.57 -0.74c-1.5,-1.84 -2.92,-3.73 -4.37,-5.6 -0.21,-0.27 -0.35,-0.51 -0.44,-0.74z"/>
  <path fill="#041532" d="M12.43 27.91l5.4 2.01 20.32 7.06c-0.57,-1.18 -1.24,-2.69 -1.47,-3.76 -0.34,-1 -0.66,-2.04 -0.95,-3.08 -0.94,-0.8 -1.03,-1.49 -1.26,-3.04l-0.33 -2.17c-6.21,-0.61 -17.2,-5.58 -18.16,-6.91 -5.24,-6.37 -9.98,-12.97 -11.77,-15.83 -0.06,-0.08 -0.26,-0.29 -0.32,-0.35l-0.17 -0.17c-0.04,-0.03 -0.08,-0.06 -0.13,-0.09l-0.11 -0.11c-0.12,-0.1 -0.23,-0.18 -0.28,-0.22l-0.22 -0.17c-0.12,-0.1 -0.26,-0.17 -0.39,-0.26l-0.8 -0.4c0,0 -0.08,-0.02 -0.08,-0.02l-0.32 -0.11c-0.05,-0.03 -0.05,-0.05 -0.15,-0.06 -0.08,-0.02 -0.1,-0.04 -0.16,-0.05 -0.09,-0.03 -0.05,0 -0.17,-0.05l-0.54 -0.09c-0.06,0 -0.13,-0.01 -0.18,-0.03 -0.03,-0.01 -0.05,-0.01 -0.09,-0.01 -0.17,-0.01 -0.07,0.12 -0.05,0.18l0.48 1.06c0.03,0.06 0.07,0.13 0.09,0.21l0.22 0.5c0.01,0.02 0.02,0.02 0.03,0.04 0.01,0.03 0.01,0.03 0.02,0.06 3.76,8.12 8.45,17.45 11.54,25.86z"/>
  <path fill="#616669" d="M23.34 20.94c3.5,1.2 7.14,2.42 10.63,2.87l-0.57 -3.82 -0.01 -0.06c-2.48,1.67 -6.58,1.61 -10.05,1.01z"/>
  <path fill="#041532" d="M44.3 38.26c-1.4,-0.96 -1.47,-1.27 -2.73,-1.24 -0.05,0.78 -0.12,0.99 0.3,1.53 2.56,3.29 6.04,8.05 9.06,10.61 2.13,1.79 1.62,2.05 4.36,0.17 4.26,-2.94 7.66,-7.04 9.94,-11.61 0.44,-0.87 2.09,-4.2 2.03,-5.1 -0.12,-0.33 -9.63,-6.05 -11.37,-7.13 -2.86,-1.77 -4.86,-2 -7.86,-0.84l0.25 0.28c0.02,0.01 0.05,0.03 0.08,0.05l4.74 2.83c2.98,1.7 5.98,3.67 8.96,5.37 0.59,0.33 0.83,0.53 0.45,1.33 -1.56,3.27 -4.33,7.16 -6.91,9.44 -2.71,2.39 -2.14,2.14 -4.62,-0.17 -1.41,-1.31 -2.65,-2.75 -4.28,-3.89 -0.78,-0.54 -1.62,-1.1 -2.4,-1.63z"/>
 </g>
</svg>
